HIERARCHY
ROOT hip
{
  OFFSET 0 90.174 2.4664
  CHANNELS 6 Xposition Yposition Zposition Zrotation Xrotation Yrotation
  JOINT abdomen
  {
    OFFSET 0 -1.186 -1.5018
    CHANNELS 6 Xposition Yposition Zposition Zrotation Xrotation Yrotation
    JOINT abdomen2
    {
      OFFSET 0 9.964 0.2134
      CHANNELS 6 Xposition Yposition Zposition Zrotation Xrotation Yrotation
      JOINT chest
      {
        OFFSET 0 13.134 -3.2573
        CHANNELS 6 Xposition Yposition Zposition Zrotation Xrotation Yrotation
        JOINT neck
        {
          OFFSET 0 20.686 -1.6905
          CHANNELS 6 Xposition Yposition Zposition Zrotation Xrotation Yrotation
          JOINT head
          {
            OFFSET 0 7.238 -0.1237
            CHANNELS 6 Xposition Yposition Zposition Zrotation Xrotation Yrotation
            End Site
            {
              OFFSET 0 0 0
            }
          }
        }
        JOINT lCollar
        {
          OFFSET 1.7069 20.075 5.0056
          CHANNELS 6 Xposition Yposition Zposition Zrotation Xrotation Yrotation
          JOINT lShldr
          {
            OFFSET 13.6458 -0.047 -4.849
            CHANNELS 6 Xposition Yposition Zposition Zrotation Xrotation Yrotation
            JOINT lForeArm
            {
              OFFSET 28.3255 -0.9759 2.2888
              CHANNELS 6 Xposition Yposition Zposition Zrotation Xrotation Yrotation
              JOINT lHand
              {
                OFFSET 22.1583 -0.53 10.8316
                CHANNELS 6 Xposition Yposition Zposition Zrotation Xrotation Yrotation
                JOINT lThumb1
                {
                  OFFSET 0.786 0.112 2.5817
                  CHANNELS 6 Xposition Yposition Zposition Zrotation Xrotation Yrotation
                  JOINT lThumb2
                  {
                    OFFSET 0.3601 -0.878 4.2331
                    CHANNELS 6 Xposition Yposition Zposition Zrotation Xrotation Yrotation
                    JOINT lThumb2_End
                    {
                      OFFSET 1.8127 -1.216 2.2227
                      CHANNELS 6 Xposition Yposition Zposition Zrotation Xrotation Yrotation
                      End Site
                      {
                        OFFSET 0.0181 -0.0122 0.0222
                      }
                    }
                  }
                }
                JOINT lCarpal1
                {
                  OFFSET 0.9571 1.114 1.7695
                  CHANNELS 6 Xposition Yposition Zposition Zrotation Xrotation Yrotation
                  JOINT lIndex1
                  {
                    OFFSET 4.1246 0.487 4.1451
                    CHANNELS 6 Xposition Yposition Zposition Zrotation Xrotation Yrotation
                    JOINT lIndex2
                    {
                      OFFSET 3.4052 -1.454 2.7682
                      CHANNELS 6 Xposition Yposition Zposition Zrotation Xrotation Yrotation
                      JOINT lIndex2_End
                      {
                        OFFSET 1.4531 -1.795 1.2713
                        CHANNELS 6 Xposition Yposition Zposition Zrotation Xrotation Yrotation
                        End Site
                        {
                          OFFSET 0.0145 -0.0179 0.0127
                        }
                      }
                    }
                  }
                  JOINT lMid1
                  {
                    OFFSET 5.6954 0.21 2.1184
                    CHANNELS 6 Xposition Yposition Zposition Zrotation Xrotation Yrotation
                    JOINT lMid2
                    {
                      OFFSET 3.9766 -1.54 2.3863
                      CHANNELS 6 Xposition Yposition Zposition Zrotation Xrotation Yrotation
                      JOINT lMid2_End
                      {
                        OFFSET 1.4042 -1.926 1.125
                        CHANNELS 6 Xposition Yposition Zposition Zrotation Xrotation Yrotation
                        End Site
                        {
                          OFFSET 0.014 -0.0193 0.0113
                        }
                      }
                    }
                  }
                }
                JOINT lCarpal2
                {
                  OFFSET 2.0956 0.66 -0.3894
                  CHANNELS 6 Xposition Yposition Zposition Zrotation Xrotation Yrotation
                  JOINT lRing1
                  {
                    OFFSET 5.0395 -0.09 2.4971
                    CHANNELS 6 Xposition Yposition Zposition Zrotation Xrotation Yrotation
                    JOINT lRing2
                    {
                      OFFSET 3.7921 -1.552 1.4806
                      CHANNELS 6 Xposition Yposition Zposition Zrotation Xrotation Yrotation
                      JOINT lRing2_End
                      {
                        OFFSET 1.4655 -1.808 0.9609
                        CHANNELS 6 Xposition Yposition Zposition Zrotation Xrotation Yrotation
                        End Site
                        {
                          OFFSET 0.0147 -0.0181 0.0096
                        }
                      }
                    }
                  }
                  JOINT lPinky1
                  {
                    OFFSET 4.9141 -1.269 0.3591
                    CHANNELS 6 Xposition Yposition Zposition Zrotation Xrotation Yrotation
                    JOINT lPinky2
                    {
                      OFFSET 3.1477 -1.685 0.8462
                      CHANNELS 6 Xposition Yposition Zposition Zrotation Xrotation Yrotation
                      JOINT lPinky2_End
                      {
                        OFFSET 0.8055 -1.585 0.7955
                        CHANNELS 6 Xposition Yposition Zposition Zrotation Xrotation Yrotation
                        End Site
                        {
                          OFFSET 0.0081 -0.0158 0.008
                        }
                      }
                    }
                  }
                }
              }
            }
          }
        }
        JOINT rCollar
        {
          OFFSET -1.7069 20.075 5.0056
          CHANNELS 6 Xposition Yposition Zposition Zrotation Xrotation Yrotation
          JOINT rShldr
          {
            OFFSET -13.6458 -0.047 -4.849
            CHANNELS 6 Xposition Yposition Zposition Zrotation Xrotation Yrotation
            JOINT rForeArm
            {
              OFFSET -28.3255 -0.9759 2.2888
              CHANNELS 6 Xposition Yposition Zposition Zrotation Xrotation Yrotation
              JOINT rHand
              {
                OFFSET -22.1583 -0.53 10.8316
                CHANNELS 6 Xposition Yposition Zposition Zrotation Xrotation Yrotation
                JOINT rThumb1
                {
                  OFFSET -0.786 0.112 2.5817
                  CHANNELS 6 Xposition Yposition Zposition Zrotation Xrotation Yrotation
                  JOINT rThumb2
                  {
                    OFFSET -0.3601 -0.878 4.2331
                    CHANNELS 6 Xposition Yposition Zposition Zrotation Xrotation Yrotation
                    JOINT rThumb2_End
                    {
                      OFFSET -1.8127 -1.216 2.2227
                      CHANNELS 6 Xposition Yposition Zposition Zrotation Xrotation Yrotation
                      End Site
                      {
                        OFFSET -0.0181 -0.0122 0.0222
                      }
                    }
                  }
                }
                JOINT rCarpal1
                {
                  OFFSET -0.9571 1.114 1.7695
                  CHANNELS 6 Xposition Yposition Zposition Zrotation Xrotation Yrotation
                  JOINT rIndex1
                  {
                    OFFSET -4.1246 0.487 4.1451
                    CHANNELS 6 Xposition Yposition Zposition Zrotation Xrotation Yrotation
                    JOINT rIndex2
                    {
                      OFFSET -3.4052 -1.454 2.7682
                      CHANNELS 6 Xposition Yposition Zposition Zrotation Xrotation Yrotation
                      JOINT rIndex2_End
                      {
                        OFFSET -1.4531 -1.795 1.2713
                        CHANNELS 6 Xposition Yposition Zposition Zrotation Xrotation Yrotation
                        End Site
                        {
                          OFFSET -0.0145 -0.018 0.0127
                        }
                      }
                    }
                  }
                  JOINT rMid1
                  {
                    OFFSET -5.6954 0.21 2.1184
                    CHANNELS 6 Xposition Yposition Zposition Zrotation Xrotation Yrotation
                    JOINT rMid2
                    {
                      OFFSET -3.9766 -1.54 2.3863
                      CHANNELS 6 Xposition Yposition Zposition Zrotation Xrotation Yrotation
                      JOINT rMid2_End
                      {
                        OFFSET -1.4042 -1.926 1.125
                        CHANNELS 6 Xposition Yposition Zposition Zrotation Xrotation Yrotation
                        End Site
                        {
                          OFFSET -0.014 -0.0193 0.0113
                        }
                      }
                    }
                  }
                }
                JOINT rCarpal2
                {
                  OFFSET -2.0956 0.66 -0.3894
                  CHANNELS 6 Xposition Yposition Zposition Zrotation Xrotation Yrotation
                  JOINT rRing1
                  {
                    OFFSET -5.0395 -0.09 2.4971
                    CHANNELS 6 Xposition Yposition Zposition Zrotation Xrotation Yrotation
                    JOINT rRing2
                    {
                      OFFSET -3.7921 -1.552 1.4806
                      CHANNELS 6 Xposition Yposition Zposition Zrotation Xrotation Yrotation
                      JOINT rRing2_End
                      {
                        OFFSET -1.4655 -1.808 0.9609
                        CHANNELS 6 Xposition Yposition Zposition Zrotation Xrotation Yrotation
                        End Site
                        {
                          OFFSET -0.0147 -0.0181 0.0096
                        }
                      }
                    }
                  }
                  JOINT rPinky1
                  {
                    OFFSET -4.9141 -1.269 0.3592
                    CHANNELS 6 Xposition Yposition Zposition Zrotation Xrotation Yrotation
                    JOINT rPinky2
                    {
                      OFFSET -3.1477 -1.685 0.8462
                      CHANNELS 6 Xposition Yposition Zposition Zrotation Xrotation Yrotation
                      JOINT rPinky2_End
                      {
                        OFFSET -0.8055 -1.585 0.7955
                        CHANNELS 6 Xposition Yposition Zposition Zrotation Xrotation Yrotation
                        End Site
                        {
                          OFFSET -0.0081 -0.0158 0.008
                        }
                      }
                    }
                  }
                }
              }
            }
          }
        }
      }
    }
  }
  JOINT lThigh
  {
    OFFSET 8.367 -8.2066 0.5982
    CHANNELS 6 Xposition Yposition Zposition Zrotation Xrotation Yrotation
    JOINT lShin
    {
      OFFSET 2.1923 -43.463 -0.4932
      CHANNELS 6 Xposition Yposition Zposition Zrotation Xrotation Yrotation
      JOINT lFoot
      {
        OFFSET 0.7333 -45.8593 -2.6451
        CHANNELS 6 Xposition Yposition Zposition Zrotation Xrotation Yrotation
        End Site
        {
          OFFSET 2.6618 -4.2699 12.3931
        }
      }
    }
  }
  JOINT rThigh
  {
    OFFSET -8.367 -8.2066 0.5982
    CHANNELS 6 Xposition Yposition Zposition Zrotation Xrotation Yrotation
    JOINT rShin
    {
      OFFSET -2.1923 -43.463 -0.4931
      CHANNELS 6 Xposition Yposition Zposition Zrotation Xrotation Yrotation
      JOINT rFoot
      {
        OFFSET -0.7333 -45.8593 -2.6451
        CHANNELS 6 Xposition Yposition Zposition Zrotation Xrotation Yrotation
        End Site
        {
          OFFSET -2.6618 -4.2699 12.3931
        }
      }
    }
  }
}
MOTION
Frames:	4
Frame Time:	0.0333333
0 90.174 2.4664 0 0 -0 0 -1.186 -1.5018 0 0 -0 0 9.964 0.2134 0 0 -0 0 13.134 -3.2573 0 0 -0 0 20.686 -1.6905 0 0 -0 0 7.238 -0.1237 0 0 -0 1.7069 20.075 5.0056 0 0 -0 13.6458 -0.047 -4.849 1.66051 0.0835086 5.75766 28.3255 -0.9759 2.2888 -0.0175111 0.895433 15.7816 22.1583 -0.53 10.8316 7.95139e-016 -1.98785e-016 -0 0.786 0.112 2.5817 5.46658e-016 -3.97569e-016 -0 0.3601 -0.878 4.2331 5.96354e-016 0 -0 1.8127 -1.216 2.2227 3.97569e-016 1.98785e-016 9.54166e-015 0.9571 1.114 1.7695 1.49089e-016 -3.97569e-016 -0 4.1246 0.487 4.1451 6.4605e-016 0 3.18055e-015 3.4052 -1.454 2.7682 5.96354e-016 0 3.18055e-015 1.4531 -1.795 1.2713 8.94531e-016 -1.98785e-016 6.36111e-015 5.6954 0.21 2.1184 6.4605e-016 0 3.18055e-015 3.9766 -1.54 2.3863 5.96354e-016 0 3.18055e-015 1.4042 -1.926 1.125 8.94531e-016 -1.98785e-016 6.36111e-015 2.0956 0.66 -0.3894 1.49089e-016 -3.97569e-016 -0 5.0395 -0.09 2.4971 6.4605e-016 0 3.18055e-015 3.7921 -1.552 1.4806 5.96354e-016 0 3.18055e-015 1.4655 -1.808 0.9609 8.94531e-016 -1.98785e-016 6.36111e-015 4.9141 -1.269 0.3591 6.4605e-016 0 3.18055e-015 3.1477 -1.685 0.8462 5.96354e-016 0 3.18055e-015 0.8055 -1.585 0.7955 8.94531e-016 -1.98785e-016 6.36111e-015 -1.7069 20.075 5.0056 0 0 -0 -13.6458 -0.047 -4.849 -1.4496 0.0636048 -5.0245 -28.3255 -0.9759 2.2888 -1.74811 1.20616 -16.8394 -22.1583 -0.53 10.8316 -1.19271e-015 1.98785e-016 -3.18055e-015 -0.786 0.112 2.5817 -3.97569e-016 1.98785e-016 -3.18055e-015 -0.3601 -0.878 4.2331 -2.98177e-016 1.98785e-016 -3.18055e-015 -1.8127 -1.216 2.2227 -2.98177e-016 3.97569e-016 -0 -0.9571 1.114 1.7695 4.96962e-016 0 -6.36111e-015 -4.1246 0.487 4.1451 -9.93923e-017 3.97569e-016 -0 -3.4052 -1.454 2.7682 -8.94531e-016 5.96354e-016 -0 -1.4531 -1.795 1.2713 -3.97569e-016 3.97569e-016 -0 -5.6954 0.21 2.1184 -9.93923e-017 3.97569e-016 -0 -3.9766 -1.54 2.3863 -8.94531e-016 5.96354e-016 -0 -1.4042 -1.926 1.125 -3.97569e-016 3.97569e-016 -0 -2.0956 0.66 -0.3894 4.96962e-016 0 -6.36111e-015 -5.0395 -0.09 2.4971 -9.93923e-017 3.97569e-016 -0 -3.7921 -1.552 1.4806 -8.94531e-016 5.96354e-016 -0 -1.4655 -1.808 0.9609 -3.97569e-016 3.97569e-016 -0 -4.9141 -1.269 0.3592 -9.93923e-017 3.97569e-016 -0 -3.1477 -1.685 0.8462 -8.94531e-016 5.96354e-016 -0 -0.8055 -1.585 0.7955 -3.97569e-016 3.97569e-016 -0 8.367 -8.2066 0.5982 -4.66115 -1.03232 0.120763 2.1923 -43.463 -0.4932 0.00990601 1.55097 0.177175 0.7333 -45.8593 -2.6451 4.65196 -0.54114 -0.255042 -8.367 -8.2066 0.5982 4.66115 -1.03222 -0.120763 -2.1923 -43.463 -0.4931 -0.00990459 1.5509 -0.177176 -0.7333 -45.8593 -2.6451 -4.65196 -0.541171 0.255041 
2.63856 -0.486786 -68.9699 89.9959 -75.0026 -0.0031132 0 -1.186 -1.5018 -3.09245 -4.70871 -0.997812 0 9.964 0.2134 -6.29873 -9.3556 -2.26135 0 13.134 -3.2573 -6.29876 -9.3556 -2.26136 0 20.686 -1.6905 8.99836 -1.97955 0.311962 8.88178e-016 7.238 -0.1237 4.87685e-006 14.9982 -1.66944e-006 1.7069 20.075 5.0056 -5.78156 -7.38979 -1.43862 13.6458 -0.047 -4.849 -68.0607 -25.1629 -24.523 28.3255 -0.9759 2.2888 -52.8534 11.4284 6.8449 22.1583 -0.53 10.8316 -41.2101 11.3948 4.72738 0.786 0.112 2.5817 -3.90931e-006 -2.15849e-006 -1.10328e-006 0.3601 -0.878 4.2331 -9.31385e-007 -1.77574e-006 4.52278e-007 1.8127 -1.216 2.2227 1.98785e-015 -3.18055e-015 3.97569e-016 0.9571 1.114 1.7695 -3.97569e-016 0 -7.95139e-016 4.1246 0.487 4.1451 -3.90931e-006 -2.15849e-006 -1.10328e-006 3.4052 -1.454 2.7682 -9.31385e-007 -1.77574e-006 4.52278e-007 1.4531 -1.795 1.2713 4.37326e-015 0 -7.95139e-016 5.6954 0.21 2.1184 -3.90931e-006 -2.15849e-006 -1.10328e-006 3.9766 -1.54 2.3863 -9.31385e-007 -1.77574e-006 4.52278e-007 1.4042 -1.926 1.125 4.37326e-015 0 -7.95139e-016 2.0956 0.66 -0.3894 -3.97569e-016 0 -7.95139e-016 5.0395 -0.09 2.4971 -3.90931e-006 -2.15849e-006 -1.10328e-006 3.7921 -1.552 1.4806 -9.31385e-007 -1.77574e-006 4.52278e-007 1.4655 -1.808 0.9609 4.37326e-015 0 -7.95139e-016 4.9141 -1.269 0.3591 -3.90931e-006 -2.15849e-006 -1.10328e-006 3.1477 -1.685 0.8462 -9.31385e-007 -1.77574e-006 4.52278e-007 0.8055 -1.585 0.7955 4.37326e-015 0 -7.95139e-016 -1.7069 20.075 5.0056 21.2855 5.01167 6.88323 -13.6458 -0.047 -4.849 58.3875 -3.96171 18.6053 -28.3255 -0.9759 2.2888 73.7681 -35.3219 49.6671 -22.1583 -0.53 10.8316 68.7179 37.0801 -41.913 -0.786 0.112 2.5817 -6.36111e-015 -6.36111e-015 -0 -0.3601 -0.878 4.2331 -8.34896e-015 0 1.59028e-015 -1.8127 -1.216 2.2227 -3.97569e-015 0 3.18055e-015 -0.9571 1.114 1.7695 -3.18055e-015 -6.36111e-015 -7.95139e-016 -4.1246 0.487 4.1451 -3.57812e-015 0 4.77083e-015 -3.4052 -1.454 2.7682 -1.19271e-015 -3.18055e-015 1.59028e-015 -1.4531 -1.795 1.2713 -1.19271e-015 0 7.95139e-016 -5.6954 0.21 2.1184 -3.57812e-015 0 4.77083e-015 -3.9766 -1.54 2.3863 -1.19271e-015 -3.18055e-015 1.59028e-015 -1.4042 -1.926 1.125 -1.19271e-015 0 7.95139e-016 -2.0956 0.66 -0.3894 -3.18055e-015 -6.36111e-015 -7.95139e-016 -5.0395 -0.09 2.4971 -3.57812e-015 0 4.77083e-015 -3.7921 -1.552 1.4806 -1.19271e-015 -3.18055e-015 1.59028e-015 -1.4655 -1.808 0.9609 -1.19271e-015 0 7.95139e-016 -4.9141 -1.269 0.3592 -3.57812e-015 0 4.77083e-015 -3.1477 -1.685 0.8462 -1.19271e-015 -3.18055e-015 1.59028e-015 -0.8055 -1.585 0.7955 -1.19271e-015 0 7.95139e-016 8.367 -8.2066 0.5982 23.3525 -37.206 26.9512 2.1923 -43.463 -0.4932 -61.3189 40.8464 37.7495 0.7333 -45.8593 -2.6451 19.062 28.2741 2.24653 -8.367 -8.2066 0.5982 10.5341 -25.4363 -13.2549 -2.1923 -43.463 -0.4931 -83.0333 62.1806 55.6879 -0.7333 -45.8593 -2.6451 10.1343 16.0611 6.10554 
2.51322 -0.482419 -69.0598 89.9997 -76.4382 -0.000272238 0 -1.186 -1.5018 -3.08075 -4.24651 -0.991023 8.88178e-016 9.964 0.2134 -6.26046 -8.43265 -2.21923 0 13.134 -3.2573 -6.26047 -8.43268 -2.21925 0 20.686 -1.6905 8.98462 -2.19525 0.34371 3.55271e-015 7.238 -0.1237 -8.94157e-006 14.2977 1.32617e-005 1.7069 20.075 5.0056 -5.3565 -8.1843 -1.47312 13.6458 -0.047 -4.849 -68.0607 -25.1629 -24.523 28.3255 -0.9759 2.2888 -52.8534 11.4284 6.8449 22.1583 -0.53 10.8316 -41.2192 11.342 4.27954 0.786 0.112 2.5817 -1.98785e-015 6.36111e-015 -3.97569e-016 0.3601 -0.878 4.2331 3.52581e-006 9.01393e-007 7.34422e-008 1.8127 -1.216 2.2227 1.65657e-006 2.00731e-006 1.83672e-006 0.9571 1.114 1.7695 -1.98785e-015 6.36111e-015 -0 4.1246 0.487 4.1451 4.37326e-015 1.27222e-014 3.18055e-015 3.4052 -1.454 2.7682 3.52581e-006 9.01393e-007 7.34422e-008 1.4531 -1.795 1.2713 1.65657e-006 2.00731e-006 1.83672e-006 5.6954 0.21 2.1184 4.37326e-015 1.27222e-014 3.18055e-015 3.9766 -1.54 2.3863 3.52581e-006 9.01393e-007 7.34422e-008 1.4042 -1.926 1.125 1.65657e-006 2.00731e-006 1.83672e-006 2.0956 0.66 -0.3894 -1.98785e-015 6.36111e-015 -0 5.0395 -0.09 2.4971 4.37326e-015 1.27222e-014 3.18055e-015 3.7921 -1.552 1.4806 3.52581e-006 9.01393e-007 7.34422e-008 1.4655 -1.808 0.9609 1.65657e-006 2.00731e-006 1.83672e-006 4.9141 -1.269 0.3591 4.37326e-015 1.27222e-014 3.18055e-015 3.1477 -1.685 0.8462 3.52581e-006 9.01393e-007 7.34422e-008 0.8055 -1.585 0.7955 1.65657e-006 2.00731e-006 1.83672e-006 -1.7069 20.075 5.0056 21.2855 5.01164 6.88324 -13.6458 -0.047 -4.849 58.3875 -3.96172 18.6053 -28.3255 -0.9759 2.2888 73.7682 -35.3219 49.6671 -22.1583 -0.53 10.8316 68.7179 37.0801 -41.913 -0.786 0.112 2.5817 -1.57222e-007 -9.40955e-007 -1.39561e-006 -0.3601 -0.878 4.2331 1.98785e-015 3.18055e-015 1.59028e-015 -1.8127 -1.216 2.2227 -7.95139e-016 3.18055e-015 2.38542e-015 -0.9571 1.114 1.7695 -1.19271e-015 -3.18055e-015 7.95139e-016 -4.1246 0.487 4.1451 -1.57222e-007 -9.40955e-007 -1.39561e-006 -3.4052 -1.454 2.7682 -2.78299e-015 3.18055e-015 3.18055e-015 -1.4531 -1.795 1.2713 -1.59028e-015 0 3.18055e-015 -5.6954 0.21 2.1184 -1.57222e-007 -9.40955e-007 -1.39561e-006 -3.9766 -1.54 2.3863 -2.78299e-015 3.18055e-015 3.18055e-015 -1.4042 -1.926 1.125 -1.59028e-015 0 3.18055e-015 -2.0956 0.66 -0.3894 -1.19271e-015 -3.18055e-015 7.95139e-016 -5.0395 -0.09 2.4971 -1.57222e-007 -9.40955e-007 -1.39561e-006 -3.7921 -1.552 1.4806 -2.78299e-015 3.18055e-015 3.18055e-015 -1.4655 -1.808 0.9609 -1.59028e-015 0 3.18055e-015 -4.9141 -1.269 0.3592 -1.57222e-007 -9.40955e-007 -1.39561e-006 -3.1477 -1.685 0.8462 -2.78299e-015 3.18055e-015 3.18055e-015 -0.8055 -1.585 0.7955 -1.59028e-015 0 3.18055e-015 8.367 -8.2066 0.5982 22.5168 -35.9546 25.7448 2.1923 -43.463 -0.4932 -61.027 41.0257 37.7045 0.7333 -45.8593 -2.6451 18.5704 28.0067 2.50822 -8.367 -8.2066 0.5982 10.3449 -23.6112 -13.5288 -2.1923 -43.463 -0.4931 -81.9902 62.1964 54.7753 -0.7333 -45.8593 -2.6451 10.1496 16.0322 6.11442 
2.39 -0.4784 -69.1472 90.0042 -77.8774 0.00342007 0 -1.186 -1.5018 -3.06918 -3.78323 -0.984398 -8.88178e-016 9.964 0.2134 -6.22324 -7.50752 -2.17796 0 13.134 -3.2573 -6.22325 -7.50751 -2.17796 0 20.686 -1.6905 8.97024 -2.41198 0.375341 3.55271e-015 7.238 -0.1237 -5.67438e-007 13.5955 2.32342e-006 1.7069 20.075 5.0056 -4.93054 -8.97979 -1.50175 13.6458 -0.047 -4.849 -68.0607 -25.1629 -24.523 28.3255 -0.9759 2.2888 -52.8534 11.4284 6.84491 22.1583 -0.53 10.8316 -41.2288 11.2893 3.83168 0.786 0.112 2.5817 -7.03188e-007 2.05576e-006 -2.53737e-006 0.3601 -0.878 4.2331 -3.51594e-007 1.02788e-006 -1.26868e-006 1.8127 -1.216 2.2227 -3.51594e-007 1.02788e-006 -1.26868e-006 0.9571 1.114 1.7695 2.38542e-015 -9.54166e-015 1.59028e-015 4.1246 0.487 4.1451 -7.03188e-007 2.05576e-006 -2.53737e-006 3.4052 -1.454 2.7682 -3.51594e-007 1.02788e-006 -1.26868e-006 1.4531 -1.795 1.2713 -3.51594e-007 1.02788e-006 -1.26868e-006 5.6954 0.21 2.1184 -7.03188e-007 2.05576e-006 -2.53737e-006 3.9766 -1.54 2.3863 -3.51594e-007 1.02788e-006 -1.26868e-006 1.4042 -1.926 1.125 -3.51594e-007 1.02788e-006 -1.26868e-006 2.0956 0.66 -0.3894 2.38542e-015 -9.54166e-015 1.59028e-015 5.0395 -0.09 2.4971 -7.03188e-007 2.05576e-006 -2.53737e-006 3.7921 -1.552 1.4806 -3.51594e-007 1.02788e-006 -1.26868e-006 1.4655 -1.808 0.9609 -3.51594e-007 1.02788e-006 -1.26868e-006 4.9141 -1.269 0.3591 -7.03188e-007 2.05576e-006 -2.53737e-006 3.1477 -1.685 0.8462 -3.51594e-007 1.02788e-006 -1.26868e-006 0.8055 -1.585 0.7955 -3.51594e-007 1.02788e-006 -1.26868e-006 -1.7069 20.075 5.0056 21.2855 5.01166 6.88323 -13.6458 -0.047 -4.849 58.3875 -3.9617 18.6053 -28.3255 -0.9759 2.2888 73.7681 -35.3219 49.6671 -22.1583 -0.53 10.8316 68.7179 37.0801 -41.913 -0.786 0.112 2.5817 -2.78299e-015 0 -7.95139e-016 -0.3601 -0.878 4.2331 7.95139e-016 0 -7.95139e-016 -1.8127 -1.216 2.2227 -8.74653e-015 -3.18055e-015 -7.95139e-016 -0.9571 1.114 1.7695 -2.78299e-015 0 -7.95139e-016 -4.1246 0.487 4.1451 5.1684e-015 -3.18055e-015 2.38542e-015 -3.4052 -1.454 2.7682 4.77083e-015 3.18055e-015 -7.95139e-016 -1.4531 -1.795 1.2713 2.38542e-015 -3.18055e-015 -7.95139e-016 -5.6954 0.21 2.1184 5.1684e-015 -3.18055e-015 2.38542e-015 -3.9766 -1.54 2.3863 4.77083e-015 3.18055e-015 -7.95139e-016 -1.4042 -1.926 1.125 2.38542e-015 -3.18055e-015 -7.95139e-016 -2.0956 0.66 -0.3894 -2.78299e-015 0 -7.95139e-016 -5.0395 -0.09 2.4971 5.1684e-015 -3.18055e-015 2.38542e-015 -3.7921 -1.552 1.4806 4.77083e-015 3.18055e-015 -7.95139e-016 -1.4655 -1.808 0.9609 2.38542e-015 -3.18055e-015 -7.95139e-016 -4.9141 -1.269 0.3592 5.1684e-015 -3.18055e-015 2.38542e-015 -3.1477 -1.685 0.8462 4.77083e-015 3.18055e-015 -7.95139e-016 -0.8055 -1.585 0.7955 2.38542e-015 -3.18055e-015 -7.95139e-016 8.367 -8.2066 0.5982 21.7222 -34.685 24.5747 2.1923 -43.463 -0.4932 -60.732 41.2044 37.6562 0.7333 -45.8593 -2.6451 18.0805 27.7371 2.767 -8.367 -8.2066 0.5982 10.1682 -21.7786 -13.7932 -2.1923 -43.463 -0.4931 -80.9468 62.2045 53.862 -0.7333 -45.8593 -2.6451 10.1643 16.0035 6.12321 
